<svg xmlns="http://www.w3.org/2000/svg" viewBox="0 0 32 32" width="64" height="64" fill="#ffffff">
  <path d="M16 0C7.16 0 0 7.16 0 16c0 7.08 4.58 13.07 10.94 15.2.8.15 1.09-.35 1.09-.78 0-.38-.01-1.64-.02-2.98-4.45.97-5.36-2.15-5.36-2.15C5.55 24.3 4.5 23.5 4.5 23.5c-1.14-.78.09-.76.09-.76 1.26.09 1.92 1.29 1.92 1.29 1.12 1.92 2.94 1.37 3.66 1.05.11-.81.43-1.37.78-1.69-2.73-.31-5.6-1.36-5.6-6.08 0-1.34.48-2.44 1.27-3.3-.13-.31-.55-1.56.12-3.25 0 0 1.03-.33 3.38 1.26a11.5 11.5 0 0 1 3.07-.41c1.04.01 2.09.14 3.07.4 2.35-1.59 3.38-1.26 3.38-1.26.67 1.69.25 2.94.12 3.25.75.86 1.26 1.95 1.26 3.3 0 4.73-2.88 5.77-5.62 6.08.44.38.83 1.13.83 2.28 0 1.65-.01 2.98-.01 3.39 0 .43.29.94 1.1.78C27.42 29.07 32 23.08 32 16 32 7.16 24.84 0 16 0z"/>
</svg>
